<?xml version="1.0" standalone="no"?><!DOCTYPE svg PUBLIC "-//W3C//DTD SVG 1.1//EN" "http://www.w3.org/Graphics/SVG/1.1/DTD/svg11.dtd"><svg t="1754131917002" class="icon" viewBox="0 0 1024 1024" version="1.1" xmlns="http://www.w3.org/2000/svg" p-id="4983" xmlns:xlink="http://www.w3.org/1999/xlink" width="256" height="256"><path d="M592.213333 511.715556l317.667556-317.724445c22.186667-22.186667 22.186667-58.368 0-80.497778a57.059556 57.059556 0 0 0-80.440889 0L511.658667 431.217778 193.991111 113.493333a57.116444 57.116444 0 0 0-80.497778 0 57.116444 57.116444 0 0 0 0 80.497778L431.217778 511.715556 113.436444 829.44a57.116444 57.116444 0 0 0 0 80.497778c22.186667 22.129778 58.368 22.129778 80.497778 0l317.724445-317.724445 317.781333 317.724445a57.059556 57.059556 0 0 0 80.440889 0c22.186667-22.186667 22.186667-58.368 0-80.497778L592.213333 511.715556z" fill="#FFFFFF" p-id="4984"></path></svg>