<?xml version="1.0" standalone="no"?><!DOCTYPE svg PUBLIC "-//W3C//DTD SVG 1.1//EN" "http://www.w3.org/Graphics/SVG/1.1/DTD/svg11.dtd"><svg t="1754471690332" class="icon" viewBox="0 0 1024 1024" version="1.1" xmlns="http://www.w3.org/2000/svg" p-id="5566" xmlns:xlink="http://www.w3.org/1999/xlink" width="256" height="256"><path d="M576.389562 1024A522.303665 522.303665 0 0 1 238.759308 103.797568 513.161417 513.161417 0 0 1 425.472143 2.177965a52.251464 52.251464 0 0 1 55.556739 17.229621 52.251464 52.251464 0 0 1 4.782099 57.736813 466.465627 466.465627 0 0 0 4.219499 462.246128 470.122526 470.122526 0 0 0 425.114535 235.0261 52.251464 52.251464 0 0 1 48.80554 30.310069c9.142248 18.987746 5.977624 41.702716-8.087373 57.455513a520.264241 520.264241 0 0 1-379.47362 161.747466zM440.66234 51.827404c-61.885987 18.636121-119.20085 49.93074-168.217364 91.914756a470.122526 470.122526 0 1 0 644.528489 681.660082 522.303665 522.303665 0 0 1-471.880651-261.186995A518.646766 518.646766 0 0 1 440.52169 51.897729z" p-id="5567" fill="#B4B4B4"></path></svg>