<?xml version="1.0" standalone="no"?><!DOCTYPE svg PUBLIC "-//W3C//DTD SVG 1.1//EN" "http://www.w3.org/Graphics/SVG/1.1/DTD/svg11.dtd"><svg t="1755075479689" class="icon" viewBox="0 0 1024 1024" version="1.1" xmlns="http://www.w3.org/2000/svg" p-id="1491" xmlns:xlink="http://www.w3.org/1999/xlink" width="256" height="256"><path d="M989.25568 537.0368c-6.67904-19.55328-27.89632-29.952-47.47264-23.2704a37.2352 37.2352 0 0 0-23.20896 23.2704h-2.58048v328.71424c-1.40032 27.31264-23.20384 49.11616-50.51648 50.5856H157.9776c-27.31008-1.46944-49.1136-23.27296-50.60864-50.5856V158.05696c1.46688-27.3408 23.26784-49.14688 50.60864-50.61376h303.1936c52.19584 0 51.84768-75.78112 0-75.78112H161.87904c-73.82016-0.06144-130.29376 55.62112-130.29376 128.29696v703.62624c0 72.73216 56.4736 128.23552 130.29376 128.23552h713.14688c73.90464 0 116.81024-53.62688 116.81024-126.0672V537.0368h-2.58048z" fill="#2c2c2c" p-id="1492"></path><path d="M875.02848 1007.1808H161.87904c-39.76704 0-76.56192-14.65088-103.6032-41.25184-27.11808-26.67776-42.05312-63.02464-42.05312-102.34368V159.95904c0-39.28064 14.91712-75.6224 42.00192-102.32576C85.2608 30.98368 122.02752 16.30464 161.75872 16.30464h299.41248c35.6992 0 54.37696 26.83648 54.37696 53.34528 0 13.76512-4.89216 26.68288-13.77792 36.37248-7.02208 7.65696-19.76576 16.78336-40.59904 16.78336H158.42304a38.1312 38.1312 0 0 0-35.69152 35.69664v706.79552a38.15936 38.15936 0 0 0 35.69408 35.68128h706.60352a37.98528 37.98528 0 0 0 35.60448-35.65056V521.6768h8.27392c6.35136-10.39872 16.2432-18.46528 27.91424-22.44864a52.7104 52.7104 0 0 1 62.10304 22.44864h8.27136v344.07424c0.00256 84.5952-53.11488 141.42976-132.16768 141.42976zM161.87904 47.02464c-65.57696 0-114.93376 48.55296-114.93376 112.93696v703.62624c0 64.35072 49.41056 112.87552 114.93376 112.87552h713.14688c61.62688 0 101.45024-43.456 101.45024-110.7072V547.14624l-1.75872-5.1456a21.99808 21.99808 0 0 0-27.97568-13.69856 21.94944 21.94944 0 0 0-13.62176 13.6576l-1.76896 5.23264-0.02048 319.3472c-1.8048 35.23584-29.76512 63.23712-65.03168 65.13408l-0.82432 0.02304H157.56544l-0.41216-0.02304c-35.2-1.8944-63.1936-29.8752-65.12128-65.08288l-0.02304-0.83968V157.64736l0.02304-0.41216a68.79232 68.79232 0 0 1 65.12128-65.1264l0.82176-0.02304h303.1936c7.76192 0 13.80352-2.29632 17.9584-6.82752 3.6224-3.94752 5.69856-9.6384 5.69856-15.60832 0-10.43712-6.1952-22.62528-23.65696-22.62528H161.87904z" fill="#2c2c2c" p-id="1493"></path><path d="M667.71968 109.20192h189.07648l-359.1936 360.92416c-15.15776 15.18592-15.15776 39.73888 0 54.9248 14.94272 15.05792 39.3216 15.15264 54.41792 0.20224a1.0752 1.0752 0 0 1 0.17152-0.20224L914.11712 161.36448v194.9696c0 21.3376 17.34912 38.656 38.68416 38.656 21.32992 0 38.68416-17.3184 38.68416-38.656V71.69024a38.76864 38.76864 0 0 0-12.84352-28.4544 38.4512 38.4512 0 0 0-27.4816-11.6352h-283.4432c-21.4528 0.84736-38.10304 18.90304-37.28128 40.32256 0.83456 20.25472 17.06752 36.48768 37.28384 37.27872z" fill="#2c2c2c" p-id="1494"></path><path d="M524.90496 551.76448c-0.00256 0 0 0 0 0-14.464-0.00256-28.032-5.64736-38.20288-15.89504-21.056-21.09184-21.05856-55.46752 0.03072-76.5952L819.84 124.56192l-152.71936-0.01024c-28.02176-1.09824-50.87488-23.936-52.02944-51.9936-1.14176-29.88544 22.1952-55.12448 52.02176-56.30208l0.60672-0.0128h283.4432c14.28224 0.04096 28.13184 5.83424 38.1312 15.91552a54.30528 54.30528 0 0 1 17.55392 39.36v284.81536c0 29.78304-24.24576 54.016-54.04416 54.016s-54.04416-24.2304-54.04416-54.016V198.57408L564.06016 534.90176l-0.08704 0.13312-1.14176 1.12896a53.56032 53.56032 0 0 1-37.9264 15.60064z m143.1552-457.92256h225.69472L508.4928 480.96c-9.15968 9.17504-9.15968 24.07936-0.01792 33.23648a22.95808 22.95808 0 0 0 16.43008 6.84544 23.02464 23.02464 0 0 0 15.92832-6.33856c0.17664-0.192 0.36096-0.37888 0.54784-0.5632l388.096-389.98528v232.1792c0 12.84608 10.46272 23.296 23.32416 23.296s23.32416-10.44992 23.32416-23.296V71.69024a23.41888 23.41888 0 0 0-7.744-17.024l-0.75264-0.72192a23.22944 23.22944 0 0 0-16.50944-6.98112h-283.0592c-12.79488 0.65024-22.76608 11.52768-22.272 24.37632 0.49408 12.04224 10.25536 21.89568 22.272 22.5024z" fill="#2c2c2c" p-id="1495"></path></svg>