<?xml version="1.0" standalone="no"?><!DOCTYPE svg PUBLIC "-//W3C//DTD SVG 1.1//EN" "http://www.w3.org/Graphics/SVG/1.1/DTD/svg11.dtd"><svg t="1750058934829" class="icon" viewBox="0 0 1638 1024" version="1.1" xmlns="http://www.w3.org/2000/svg" p-id="16821" xmlns:xlink="http://www.w3.org/1999/xlink" width="409.5" height="256"><path d="M0 844.8c0 97.45 361.097 176.47 806.537 176.47s806.502-79.02 806.502-176.47c0-97.417-361.097-176.401-806.502-176.401C361.097 668.399 0 747.383 0 844.8z" fill="#F5F5F5" p-id="16822"></path><path d="M1398.784 580.164H214.254V330.65l259.62-294.878C486.4 13.107 509.132 0.478 531.796 0.478h549.445c22.698 0 45.397 12.63 60.484 37.82l257.092 292.352v249.514zM239.479 555.008h1134.149V338.261L1121.553 50.86c-12.561-17.613-25.19-27.648-40.311-27.648H531.797c-15.12 0-27.716 10.069-37.82 25.19L239.446 340.753v214.22z" fill="#D9D9D9" p-id="16823"></path><path d="M1048.474 413.833c0-40.312 25.19-73.08 55.466-73.08h282.283v456.192c0 52.907-32.768 98.304-75.64 98.304H302.455c-40.345 0-75.605-42.871-75.605-98.304V340.753h282.283c30.242 0 55.432 32.768 55.432 73.08s25.19 73.079 55.433 73.079H993.04c30.242 2.526 55.433-32.768 55.433-73.08z" fill="#FAFAFA" p-id="16824"></path><path d="M1310.583 907.844H302.455c-47.889 0-88.234-50.415-88.234-110.933V328.192h294.912c37.785 0 68.028 37.786 68.028 85.675 0 32.768 20.138 60.484 42.837 60.484H993.04c22.665 0 42.837-27.716 42.837-60.484 0-47.89 30.243-85.675 68.062-85.675h294.878v468.787c0 60.484-37.82 110.9-88.235 110.9zM239.445 353.348v443.597c0 47.89 27.717 85.675 63.01 85.675h1008.128c35.294 0 63.01-37.786 63.01-85.675V353.348H1103.94c-22.698 0-42.871 27.717-42.871 60.485 0 47.889-30.242 85.674-68.028 85.674H619.998c-37.786 0-68.028-37.785-68.028-85.674 0-32.768-20.139-63.01-42.837-63.01H239.445v2.525z" fill="#D9D9D9" p-id="16825"></path></svg>