<?xml version="1.0" standalone="no"?><!DOCTYPE svg PUBLIC "-//W3C//DTD SVG 1.1//EN" "http://www.w3.org/Graphics/SVG/1.1/DTD/svg11.dtd"><svg t="1753188757474" class="icon" viewBox="0 0 1024 1024" version="1.1" xmlns="http://www.w3.org/2000/svg" p-id="18752" xmlns:xlink="http://www.w3.org/1999/xlink" width="256" height="256"><path d="M512 0a512 512 0 1 0 0 1024 512 512 0 0 0 0-1024z m0 960.030118a448.030118 448.030118 0 1 1 0-896.060236 448.030118 448.030118 0 0 1 0 896.060236z m145.167059-476.16L412.069647 238.832941a31.984941 31.984941 0 0 0-45.236706 45.296941L594.763294 512 366.832941 739.870118a31.984941 31.984941 0 1 0 45.176471 45.296941l245.037176-245.037177a31.382588 31.382588 0 0 0 8.312471-28.129882 31.322353 31.322353 0 0 0-8.312471-28.129882z" fill="#ffffff" p-id="18753"></path></svg>