<?xml version="1.0" standalone="no"?><!DOCTYPE svg PUBLIC "-//W3C//DTD SVG 1.1//EN" "http://www.w3.org/Graphics/SVG/1.1/DTD/svg11.dtd"><svg t="1752835491561" class="icon" viewBox="0 0 1024 1024" version="1.1" xmlns="http://www.w3.org/2000/svg" p-id="14138" xmlns:xlink="http://www.w3.org/1999/xlink" width="256" height="256"><path d="M552.05868 121.010595q86.793806 7.511002 162.738386 45.483293t131.859821 98.06031 88.04564 138.953545 32.130399 167.328443q0 94.304808-35.885901 176.508557t-97.225754 143.96088-144.378158 97.225754-176.508557 35.468623q-94.304808 0-177.343113-35.468623t-144.795436-97.225754-97.643032-143.96088-35.885901-176.508557q0-77.613692 24.619397-147.299104t68.850856-126.435208 104.319478-98.477588 131.859821-61.757131q-8.345558-25.036675-20.446618-49.656072t-23.784841-43.814181-20.863896-31.295844-10.849226-12.101059q64.260799 10.849226 109.326813 30.04401t73.858191 38.806846 42.562347 34.634067 15.439283 17.525672zM311.706601 347.175224q-23.367563 0-39.224124 14.187449t-15.856561 35.051345q0 20.02934 15.856561 34.216789t39.224124 14.187449q22.533007 0 38.389568-14.187449t15.856561-34.216789q0-20.863896-15.856561-35.051345t-38.389568-14.187449zM356.772616 641.773431q11.683782-35.051345 12.101059-60.922575t-18.777506-45.066015q-12.518337-11.683782-20.446618-19.194784t-16.273839-14.604727-19.194784-15.022005-29.209454-21.281174l-35.051345 52.577017 65.095355 39.224124q10.849226 6.676447 18.360228 15.856561 6.676447 8.345558 8.762836 20.02934t-5.424613 26.705786q-6.676447 14.187449-25.453953 35.468623t-37.97229 40.475958q-22.533007 22.533007-49.238794 46.735126l84.290139 51.742461q21.698452-46.735126 32.964955-70.102689t17.108394-35.885901 9.180114-21.281174 9.180114-25.453953zM813.274654 700.192339q6.676447-57.584352 6.676447-103.484923t-2.503667-78.448248q-3.338223-38.389568-8.345558-66.764466-10.01467-30.878566-48.404238-49.238794-16.691117-7.511002-40.475958-13.352893t-58.00163-7.511002-78.865526 2.08639-102.233089 14.604727q4.172779-9.180114 7.92828-16.273839t6.259169-12.935615q3.338223-6.676447 5.007335-12.518337l-76.779136-22.533007q-10.01467 30.878566-23.367563 59.253464-11.683782 24.202119-28.374898 50.907905t-37.555012 44.231459q15.022005 8.345558 27.540342 14.187449 10.849226 5.841891 19.194784 10.01467t8.345558 3.338223q11.683782-10.849226 21.698452-22.115729t19.194784-22.950285q9.180114-4.172779 18.360228-7.92828t18.360228-7.92828q-10.849226 19.194784-27.540342 44.231459t-33.382233 44.231459l32.547677 28.374898 12.518337-12.518337 13.352893-14.187449q8.345558-7.511002 17.525672-17.525672l42.562347 0 3.338223 60.922575-123.514262 0 0 35.051345 123.514262 0 0 73.440913-4.172779 0-14.187449 0q-10.01467 0-20.863896-0.834556t-19.612062-2.920945-11.266504-6.259169q-6.676447-10.01467-3.755501-27.123064t3.755501-28.792176l-62.591687 0-7.511002 1.669112q-5.841891 36.720456 0 65.095355 2.503667 12.518337 7.511002 23.784841t14.187449 20.02934 22.950285 14.187449 33.799511 4.590057q37.555012 0.834556 67.599022-5.007335t52.994295-15.022005 39.641402-19.612062 26.705786-17.94295l10.849226 40.05868 60.922575-25.036675-38.389568-94.304808 21.698452 0 0-35.051345-108.492258 0 0-60.922575 105.98859 0 0-35.051345-190.278729 0q10.01467-12.518337 19.194784-25.871231t10.849226-20.02934l-32.547677-8.345558q63.426243-10.849226 113.499593-10.849226 20.863896 0 41.310513 2.08639t36.303178 7.92828 25.453953 15.856561 9.597392 25.036675l0 215.315403q-1.669112 20.02934-10.849226 35.051345-8.345558 13.352893-25.871231 23.367563t-49.238794 8.345558l-45.90057-7.511002-10.849226 33.382233q56.749796 16.691117 102.650367 14.187449 20.02934-0.834556 39.224124-5.841891t34.634067-16.273839 26.288509-30.04401 14.187449-47.98696zM643.025265 666.810106q-17.525672 13.352893-43.396903 22.533007l0-65.92991 63.426243 0-29.209454 9.180114z" p-id="14139" fill="#ffffff"></path></svg>